<?xml version="1.0" encoding="UTF-8" standalone="no"?>
<!-- Created with Inkscape (http://www.inkscape.org/) -->

<svg
   width="40"
   height="40"
   viewBox="0 0 10.583333 10.583333"
   version="1.1"
   id="svg5"
   inkscape:version="1.2.1 (9c6d41e410, 2022-07-14, custom)"
   sodipodi:docname="bg-pattern.svg"
   inkscape:export-filename="bg-pattern.png"
   inkscape:export-xdpi="96"
   inkscape:export-ydpi="96"
   xmlns:inkscape="http://www.inkscape.org/namespaces/inkscape"
   xmlns:sodipodi="http://sodipodi.sourceforge.net/DTD/sodipodi-0.dtd"
   xmlns="http://www.w3.org/2000/svg"
   xmlns:svg="http://www.w3.org/2000/svg">
  <sodipodi:namedview
     id="namedview7"
     pagecolor="#c8c8c8"
     bordercolor="#eeeeee"
     borderopacity="1"
     inkscape:showpageshadow="0"
     inkscape:pageopacity="0"
     inkscape:pagecheckerboard="0"
     inkscape:deskcolor="#d7d7d7"
     inkscape:document-units="px"
     showgrid="true"
     inkscape:zoom="11.313708"
     inkscape:cx="-0.30935923"
     inkscape:cy="26.162952"
     inkscape:window-width="1920"
     inkscape:window-height="1055"
     inkscape:window-x="0"
     inkscape:window-y="25"
     inkscape:window-maximized="1"
     inkscape:current-layer="layer1">
    <inkscape:grid
       type="xygrid"
       id="grid2715"
       originx="0"
       originy="0" />
  </sodipodi:namedview>
  <defs
     id="defs2" />
  <g
     inkscape:label="Layer 1"
     inkscape:groupmode="layer"
     id="layer1">
    <path
       id="path4946"
       style="color:#000000;fill:#f9f9f9;stroke-linecap:round;stroke-linejoin:round"
       d="m -11.976529,-0.60719804 a 0.66149998,0.66149998 0 0 0 -0.466638,0.1953369 0.66149998,0.66149998 0 0 0 0,0.93327632 l 3.1594965,3.15949692 a 1.3229166,1.3229166 0 0 1 0.9332763,-0.9332763 l -3.1594968,-3.15949694 a 0.66149998,0.66149998 0 0 0 -0.466638,-0.1953369 z m 7.9028761,0.003617 a 0.66149998,0.66149998 0 0 0 -0.432015,0.19171955 L -7.6641312,2.7466022 a 1.3229166,1.3229166 0 0 1 0.9332763,0.9332763 l 3.1584634,-3.15846332 a 0.66149998,0.66149998 0 0 0 0,-0.93327632 0.66149998,0.66149998 0 0 0 -0.5012614,-0.1917199 z M -8.0077795,3.2297768 a 0.79374993,0.79374993 0 0 0 -0.79375,0.79375 0.79374993,0.79374993 0 0 0 0.79375,0.79375 0.79374993,0.79374993 0 0 0 0.79375,-0.79375 0.79374993,0.79374993 0 0 0 -0.79375,-0.79375 z m -1.275891,1.1363647 -3.1594965,3.1594969 a 0.66149998,0.66149998 0 0 0 0,0.9332764 0.66149998,0.66149998 0 0 0 0.933276,0 l 3.1594968,-3.159497 A 1.3229166,1.3229166 0 0 1 -9.2836705,4.3661415 Z m 2.551782,0 a 1.3229166,1.3229166 0 0 1 -0.9332763,0.9332763 l 3.1594969,3.159497 a 0.66149998,0.66149998 0 0 0 0.9332764,0 0.66149998,0.66149998 0 0 0 0,-0.9332764 z" />
    <path
       id="path343"
       style="color:#000000;fill:#f9f9f9;stroke-linecap:round;stroke-linejoin:round"
       d="m -12.401826,9.5911453 a 0.39687499,0.39687499 0 0 0 -0.28112,0.1152385 0.39687499,0.39687499 0 0 0 0,0.5622392 l 3.277319,3.277319 a 1.0583333,1.0583333 0 0 1 0.5622395,-0.562239 L -12.120707,9.7063838 a 0.39687499,0.39687499 0 0 0 -0.281119,-0.1152385 z m 7.9374992,0 a 0.39687499,0.39687499 0 0 0 -0.2811198,0.1152385 l -3.2752521,3.2752522 a 1.0583333,1.0583333 0 0 1 0.5622396,0.562239 l 3.2752521,-3.275252 a 0.39687499,0.39687499 0 0 0 0,-0.5622392 0.39687499,0.39687499 0 0 0 -0.2811198,-0.1152385 z m -3.9687498,3.9253417 a 0.4398917,0.4398917 0 0 0 -0.4397664,0.439766 0.4398917,0.4398917 0 0 0 0.4397664,0.439767 0.4398917,0.4398917 0 0 0 0.4397664,-0.439767 0.4398917,0.4398917 0 0 0 -0.4397664,-0.439766 z m -0.9725504,0.850077 -3.277319,3.277319 a 0.39687499,0.39687499 0 0 0 0,0.56224 0.39687499,0.39687499 0 0 0 0.562239,0 l 3.2773195,-3.277319 a 1.0583333,1.0583333 0 0 1 -0.5622395,-0.56224 z m 1.9451008,0 a 1.0583333,1.0583333 0 0 1 -0.5622395,0.56224 l 3.2773191,3.277319 a 0.39687499,0.39687499 0 0 0 0.5622396,0 0.39687499,0.39687499 0 0 0 0,-0.56224 z" />
    <path
       id="path1076"
       style="color:#000000;fill:#f9f9f9;stroke-linecap:round;stroke-linejoin:round;-inkscape-stroke:none"
       d="M 0 -0.39635822 A 0.39687499 0.39687499 0 0 0 -0.28111978 -0.28111978 A 0.39687499 0.39687499 0 0 0 -0.28111978 0.28111978 L 4.2157632 4.777486 A 1.1940657 1.1940657 0 0 1 4.777486 4.2157632 L 0.28111978 -0.28111978 A 0.39687499 0.39687499 0 0 0 0 -0.39635822 z M 10.58385 -0.39635822 A 0.39687499 0.39687499 0 0 0 10.30273 -0.28111978 L 5.8068805 4.2147297 A 1.1940657 1.1940657 0 0 1 6.3686033 4.7759357 L 10.863419 0.28111978 A 0.39687499 0.39687499 0 0 0 10.863419 -0.28111978 A 0.39687499 0.39687499 0 0 0 10.58385 -0.39635822 z M 5.2916665 4.6917031 A 0.59983587 0.59983587 0 0 0 4.6917031 5.2916665 A 0.59983587 0.59983587 0 0 0 5.2916665 5.8916299 A 0.59983587 0.59983587 0 0 0 5.8916299 5.2916665 A 0.59983587 0.59983587 0 0 0 5.2916665 4.6917031 z M 4.2157632 5.805847 L -0.28111978 10.30273 A 0.39687499 0.39687499 0 0 0 -0.28111978 10.863419 A 0.39687499 0.39687499 0 0 0 0.28111978 10.863419 L 4.777486 6.367053 A 1.1940657 1.1940657 0 0 1 4.2157632 5.805847 z M 6.367053 5.805847 A 1.1940657 1.1940657 0 0 1 5.805847 6.367053 L 10.30273 10.863419 A 0.39687499 0.39687499 0 0 0 10.863419 10.863419 A 0.39687499 0.39687499 0 0 0 10.863419 10.30273 L 6.367053 5.805847 z " />
  </g>
</svg>
